# xmcd
#
# Track frame offsets:
#  150
#  16142
#  35735
#  52262
#  65018
#  77455
#  97991
#  115643
#  131796
#  144671
#
# Disc length: 2158 seconds
#
# Revision: 0
# Processed by: cddbd v1.5.1PL2 Copyright (c) Steve Scherf et al.
# Submitted via: Collectorz.com_Music_Collector 6.9
#
DISCID=87086c0a
DTITLE=Queen - The Game
DYEAR=1980
DGENRE=Rock
TTITLE0=Play The Game
TTITLE1=Dragon Attack
TTITLE2=Another One Bites The Dust
TTITLE3=Need Your Loving Tonight
TTITLE4=Crazy Little Thing Called Love
TTITLE5=Rock It (Prime Jive)
TTITLE6=Don't Try Suicide
TTITLE7=Sail Away Sweet Sister
TTITLE8=Coming Soon
TTITLE9=Save Me
EXTD=
EXTT0=
EXTT1=
EXTT2=
EXTT3=
EXTT4=
EXTT5=
EXTT6=
EXTT7=
EXTT8=
EXTT9=
PLAYORDER=
